{
  "accessors": [
    {
      "bufferView": 2,
      "componentType": 5126,
      "count": 33943,
      "max": [
        3.3947951793670654,
        7.766598224639893,
        1.7497543096542358
      ],
      "min": [
        -3.3947951793670654,
        -9.033632278442383,
        -0.7862954139709473
      ],
      "type": "VEC3"
    },
    {
      "bufferView": 2,
      "byteOffset": 407316,
      "componentType": 5126,
      "count": 33943,
      "max": [
        1.0,
        0.999988853931427,
        1.0
      ],
      "min": [
        -1.0,
        -1.0,
        -0.9999999403953552
      ],
      "type": "VEC3"
    },
    {
      "bufferView": 1,
      "componentType": 5126,
      "count": 33943,
      "max": [
        0.46224915981292725,
        0.8888041377067566
      ],
      "min": [
        0.22105085849761963,
        0.10579841583967209
      ],
      "type": "VEC2"
    },
    {
      "bufferView": 0,
      "componentType": 5125,
      "count": 197244,
      "type": "SCALAR"
    },
    {
      "bufferView": 2,
      "byteOffset": 814632,
      "componentType": 5126,
      "count": 1368,
      "max": [
        3.329453945159912,
        -1.0128036737442017,
        1.7087515592575073
      ],
      "min": [
        -3.329453945159912,
        -3.129424810409546,
        1.6173886060714722
      ],
      "type": "VEC3"
    },
    {
      "bufferView": 2,
      "byteOffset": 831048,
      "componentType": 5126,
      "count": 1368,
      "max": [
        0.9999996423721313,
        0.9987685084342957,
        0.9999653697013855
      ],
      "min": [
        -0.9999996423721313,
        -0.949613094329834,
        -0.9999653697013855
      ],
      "type": "VEC3"
    },
    {
      "bufferView": 1,
      "byteOffset": 271544,
      "componentType": 5126,
      "count": 1368,
      "max": [
        0.4621827006340027,
        0.8887701034545898
      ],
      "min": [
        0.22106051445007324,
        0.10586868971586227
      ],
      "type": "VEC2"
    },
    {
      "bufferView": 0,
      "byteOffset": 788976,
      "componentType": 5125,
      "count": 7872,
      "type": "SCALAR"
    },
    {
      "bufferView": 2,
      "byteOffset": 847464,
      "componentType": 5126,
      "count": 2612,
      "max": [
        4.233586311340332,
        9.833284378051758,
        1.290343999862671
      ],
      "min": [
        -4.233586311340332,
        5.3831658363342285,
        1.1663081645965576
      ],
      "type": "VEC3"
    },
    {
      "bufferView": 2,
      "byteOffset": 878808,
      "componentType": 5126,
      "count": 2612,
      "max": [
        0.9999999403953552,
        0.9831270575523376,
        1.0
      ],
      "min": [
        -0.9999999403953552,
        -0.9699395298957825,
        -1.0
      ],
      "type": "VEC3"
    },
    {
      "bufferView": 1,
      "byteOffset": 282488,
      "componentType": 5126,
      "count": 2612,
      "max": [
        0.4621812105178833,
        0.8887734413146973
      ],
      "min": [
        0.22106218338012695,
        0.10587155073881149
      ],
      "type": "VEC2"
    },
    {
      "bufferView": 0,
      "byteOffset": 820464,
      "componentType": 5125,
      "count": 15000,
      "type": "SCALAR"
    },
    {
      "bufferView": 2,
      "byteOffset": 910152,
      "componentType": 5126,
      "count": 994,
      "max": [
        0.5317686200141907,
        -1.1817855834960938,
        1.8965764045715332
      ],
      "min": [
        -0.5317686200141907,
        -6.049633026123047,
        0.5670838356018066
      ],
      "type": "VEC3"
    },
    {
      "bufferView": 2,
      "byteOffset": 922080,
      "componentType": 5126,
      "count": 994,
      "max": [
        0.9996058344841003,
        0.9987702369689941,
        0.9999936819076538
      ],
      "min": [
        -0.9996058344841003,
        -0.999975323677063,
        -0.99997878074646
      ],
      "type": "VEC3"
    },
    {
      "bufferView": 1,
      "byteOffset": 303384,
      "componentType": 5126,
      "count": 994,
      "max": [
        0.7547178268432617,
        0.8887692093849182
      ],
      "min": [
        0.22105759382247925,
        0.8740410208702087
      ],
      "type": "VEC2"
    },
    {
      "bufferView": 0,
      "byteOffset": 880464,
      "componentType": 5125,
      "count": 5340,
      "type": "SCALAR"
    },
    {
      "bufferView": 2,
      "byteOffset": 934008,
      "componentType": 5126,
      "count": 4790,
      "max": [
        0.4511469006538391,
        1.3312220573425293,
        0.41621172428131104
      ],
      "min": [
        -2.611424207687378,
        -0.37403732538223267,
        -0.08946025371551514
      ],
      "type": "VEC3"
    },
    {
      "bufferView": 2,
      "byteOffset": 991488,
      "componentType": 5126,
      "count": 4790,
      "max": [
        0.9999254941940308,
        0.9978768229484558,
        0.9999997615814209
      ],
      "min": [
        -0.9999255537986755,
        -0.31496548652648926,
        -0.9999970197677612
      ],
      "type": "VEC3"
    },
    {
      "bufferView": 1,
      "byteOffset": 311336,
      "componentType": 5126,
      "count": 4790,
      "max": [
        0.46222540736198425,
        0.5902314782142639
      ],
      "min": [
        0.42705076932907104,
        0.10575782507658005
      ],
      "type": "VEC2"
    },
    {
      "bufferView": 0,
      "byteOffset": 901824,
      "componentType": 5125,
      "count": 27744,
      "type": "SCALAR"
    },
    {
      "bufferView": 2,
      "byteOffset": 1048968,
      "componentType": 5126,
      "count": 4366,
      "max": [
        1.6193652153015137,
        7.994747638702393,
        1.229280710220337
      ],
      "min": [
        -1.6193652153015137,
        5.410617351531982,
        0.2211207151412964
      ],
      "type": "VEC3"
    },
    {
      "bufferView": 2,
      "byteOffset": 1101360,
      "componentType": 5126,
      "count": 4366,
      "max": [
        0.9999398589134216,
        0.9955266118049622,
        0.9996964931488037
      ],
      "min": [
        -0.9999398589134216,
        -0.9605704545974731,
        -0.9998646974563599
      ],
      "type": "VEC3"
    },
    {
      "bufferView": 1,
      "byteOffset": 349656,
      "componentType": 5126,
      "count": 4366,
      "max": [
        0.4622505307197571,
        0.5902333855628967
      ],
      "min": [
        0.4270288348197937,
        0.10575508326292038
      ],
      "type": "VEC2"
    },
    {
      "bufferView": 0,
      "byteOffset": 1012800,
      "componentType": 5125,
      "count": 23712,
      "type": "SCALAR"
    },
    {
      "bufferView": 2,
      "byteOffset": 1153752,
      "componentType": 5126,
      "count": 456,
      "max": [
        1.4910167455673218,
        -0.0889735221862793,
        1.5392948389053345
      ],
      "min": [
        -1.4910167455673218,
        -0.8040053844451904,
        1.2655192613601685
      ],
      "type": "VEC3"
    },
    {
      "bufferView": 2,
      "byteOffset": 1159224,
      "componentType": 5126,
      "count": 456,
      "max": [
        1.0,
        0.9912607073783875,
        0.9718600511550903
      ],
      "min": [
        -1.0,
        -0.8596076369285583,
        -0.9719752073287964
      ],
      "type": "VEC3"
    },
    {
      "bufferView": 1,
      "byteOffset": 384584,
      "componentType": 5126,
      "count": 456,
      "max": [
        0.4270392060279846,
        0.590235710144043
      ],
      "min": [
        0.4270387887954712,
        0.5902348160743713
      ],
      "type": "VEC2"
    },
    {
      "bufferView": 0,
      "byteOffset": 1107648,
      "componentType": 5125,
      "count": 2268,
      "type": "SCALAR"
    },
    {
      "bufferView": 2,
      "byteOffset": 1164696,
      "componentType": 5126,
      "count": 8604,
      "max": [
        4.186966419219971,
        1.3926057815551758,
        0.20740064978599548
      ],
      "min": [
        -10.721176147460938,
        -4.091325759887695,
        -0.20220622420310974
      ],
      "type": "VEC3"
    },
    {
      "bufferView": 2,
      "byteOffset": 1267944,
      "componentType": 5126,
      "count": 8604,
      "max": [
        0.9999959468841553,
        1.0,
        0.9999958872795105
      ],
      "min": [
        -0.9999958872795105,
        -0.9999937415122986,
        -0.9999958872795105
      ],
      "type": "VEC3"
    },
    {
      "bufferView": 1,
      "byteOffset": 388232,
      "componentType": 5126,
      "count": 8604,
      "max": [
        0.4635671079158783,
        0.8888009190559387
      ],
      "min": [
        0.21993136405944824,
        0.10582231730222702
      ],
      "type": "VEC2"
    },
    {
      "bufferView": 0,
      "byteOffset": 1116720,
      "componentType": 5125,
      "count": 46848,
      "type": "SCALAR"
    }
  ],
  "asset": {
    "extras": {
      "author": "raub (https://sketchfab.com/raub)",
      "license": "SKETCHFAB Standard (https://sketchfab.com/licenses)",
      "source": "https://sketchfab.com/3d-models/yukikaze-ffr-41-demo-ba1bb77bc8934a24bef3181875cfef13",
      "title": "Yukikaze FFR-41 Demo"
    },
    "generator": "Sketchfab-16.32.0",
    "version": "2.0"
  },
  "bufferViews": [
    {
      "buffer": 0,
      "byteLength": 1304112,
      "name": "floatBufferViews",
      "target": 34963
    },
    {
      "buffer": 0,
      "byteLength": 457064,
      "byteOffset": 1304112,
      "byteStride": 8,
      "name": "floatBufferViews",
      "target": 34962
    },
    {
      "buffer": 0,
      "byteLength": 1371192,
      "byteOffset": 1761176,
      "byteStride": 12,
      "name": "floatBufferViews",
      "target": 34962
    }
  ],
  "buffers": [
    {
      "byteLength": 3132368,
      "uri": "scene.bin"
    }
  ],
  "extensionsUsed": [
    "KHR_materials_specular"
  ],
  "images": [
    {
      "uri": "textures/Yukikaze_baseColor.png"
    }
  ],
  "materials": [
    {
      "extensions": {
        "KHR_materials_specular": {
          "specularColorFactor": [
            1.0,
            1.0,
            1.0
          ],
          "specularFactor": 0.5104777462178932
        }
      },
      "name": "Yukikaze",
      "pbrMetallicRoughness": {
        "baseColorTexture": {
          "index": 0
        },
        "metallicFactor": 0.9737172532335336,
        "roughnessFactor": 0.608001852958028
      }
    }
  ],
  "meshes": [
    {
      "name": "Body_Yukikaze_0",
      "primitives": [
        {
          "attributes": {
            "NORMAL": 1,
            "POSITION": 0,
            "TEXCOORD_0": 2
          },
          "indices": 3,
          "material": 0,
          "mode": 4
        }
      ]
    },
    {
      "name": "WingHead_Yukikaze_0",
      "primitives": [
        {
          "attributes": {
            "NORMAL": 5,
            "POSITION": 4,
            "TEXCOORD_0": 6
          },
          "indices": 7,
          "material": 0,
          "mode": 4
        }
      ]
    },
    {
      "name": "WingTail_Yukikaze_0",
      "primitives": [
        {
          "attributes": {
            "NORMAL": 9,
            "POSITION": 8,
            "TEXCOORD_0": 10
          },
          "indices": 11,
          "material": 0,
          "mode": 4
        }
      ]
    },
    {
      "name": "Cockpit_Yukikaze_0",
      "primitives": [
        {
          "attributes": {
            "NORMAL": 13,
            "POSITION": 12,
            "TEXCOORD_0": 14
          },
          "indices": 15,
          "material": 0,
          "mode": 4
        }
      ]
    },
    {
      "name": "EngineNozzle_Yukikaze_0",
      "primitives": [
        {
          "attributes": {
            "NORMAL": 17,
            "POSITION": 16,
            "TEXCOORD_0": 18
          },
          "indices": 19,
          "material": 0,
          "mode": 4
        }
      ]
    },
    {
      "name": "EnginePipe_Yukikaze_0",
      "primitives": [
        {
          "attributes": {
            "NORMAL": 21,
            "POSITION": 20,
            "TEXCOORD_0": 22
          },
          "indices": 23,
          "material": 0,
          "mode": 4
        }
      ]
    },
    {
      "name": "Intake_Yukikaze_0",
      "primitives": [
        {
          "attributes": {
            "NORMAL": 25,
            "POSITION": 24,
            "TEXCOORD_0": 26
          },
          "indices": 27,
          "material": 0,
          "mode": 4
        }
      ]
    },
    {
      "name": "WingMain_Yukikaze_0",
      "primitives": [
        {
          "attributes": {
            "NORMAL": 29,
            "POSITION": 28,
            "TEXCOORD_0": 30
          },
          "indices": 31,
          "material": 0,
          "mode": 4
        }
      ]
    }
  ],
  "nodes": [
    {
      "children": [
        1
      ],
      "matrix": [
        1.0,
        0.0,
        0.0,
        0.0,
        0.0,
        2.220446049250313e-16,
        -1.0,
        0.0,
        0.0,
        1.0,
        2.220446049250313e-16,
        0.0,
        0.0,
        0.0,
        0.0,
        1.0
      ],
      "name": "Sketchfab_model"
    },
    {
      "children": [
        2
      ],
      "matrix": [
        0.009999999776482582,
        0.0,
        0.0,
        0.0,
        0.0,
        0.0,
        0.009999999776482582,
        0.0,
        0.0,
        -0.009999999776482582,
        0.0,
        0.0,
        0.0,
        0.0,
        0.0,
        1.0
      ],
      "name": "yukikaze-demo.fbx"
    },
    {
      "children": [
        3,
        5,
        7,
        9,
        11,
        13,
        15,
        17
      ],
      "name": "RootNode"
    },
    {
      "children": [
        4
      ],
      "matrix": [
        100.0,
        0.0,
        0.0,
        0.0,
        0.0,
        -1.629206793918314e-05,
        -99.99999999999868,
        0.0,
        0.0,
        99.99999999999868,
        -1.629206793918314e-05,
        0.0,
        0.0,
        0.0,
        0.0,
        1.0
      ],
      "name": "Body"
    },
    {
      "mesh": 0,
      "name": "Body_Yukikaze_0"
    },
    {
      "children": [
        6
      ],
      "matrix": [
        100.0,
        0.0,
        0.0,
        0.0,
        0.0,
        -1.629206793918314e-05,
        -99.99999999999868,
        0.0,
        0.0,
        99.99999999999868,
        -1.629206793918314e-05,
        0.0,
        0.0,
        0.0,
        0.0,
        1.0
      ],
      "name": "WingHead"
    },
    {
      "mesh": 1,
      "name": "WingHead_Yukikaze_0"
    },
    {
      "children": [
        8
      ],
      "matrix": [
        100.0,
        0.0,
        0.0,
        0.0,
        0.0,
        -1.629206793918314e-05,
        -99.99999999999868,
        0.0,
        0.0,
        99.99999999999868,
        -1.629206793918314e-05,
        0.0,
        0.0,
        0.0,
        0.0,
        1.0
      ],
      "name": "WingTail"
    },
    {
      "mesh": 2,
      "name": "WingTail_Yukikaze_0"
    },
    {
      "children": [
        10
      ],
      "matrix": [
        100.0,
        0.0,
        0.0,
        0.0,
        0.0,
        -1.629206793918314e-05,
        -99.99999999999868,
        0.0,
        0.0,
        99.99999999999868,
        -1.629206793918314e-05,
        0.0,
        0.0,
        0.0,
        0.0,
        1.0
      ],
      "name": "Cockpit"
    },
    {
      "mesh": 3,
      "name": "Cockpit_Yukikaze_0"
    },
    {
      "children": [
        12
      ],
      "matrix": [
        100.0,
        0.0,
        0.0,
        0.0,
        0.0,
        -1.629206793918314e-05,
        -99.99999999999868,
        0.0,
        0.0,
        99.99999999999868,
        -1.629206793918314e-05,
        0.0,
        108.01387023925781,
        78.072021484375,
        -656.3827514648438,
        1.0
      ],
      "name": "EngineNozzle"
    },
    {
      "mesh": 4,
      "name": "EngineNozzle_Yukikaze_0"
    },
    {
      "children": [
        14
      ],
      "matrix": [
        100.0,
        0.0,
        0.0,
        0.0,
        0.0,
        -1.629206793918314e-05,
        -99.99999999999868,
        0.0,
        0.0,
        99.99999999999868,
        -1.629206793918314e-05,
        0.0,
        0.0,
        0.0,
        0.0,
        1.0
      ],
      "name": "EnginePipe"
    },
    {
      "mesh": 5,
      "name": "EnginePipe_Yukikaze_0"
    },
    {
      "children": [
        16
      ],
      "matrix": [
        100.0,
        0.0,
        0.0,
        0.0,
        0.0,
        -1.629206793918314e-05,
        -99.99999999999868,
        0.0,
        0.0,
        99.99999999999868,
        -1.629206793918314e-05,
        0.0,
        0.0,
        16.267894744873047,
        -343.7632141113281,
        1.0
      ],
      "name": "Intake"
    },
    {
      "mesh": 6,
      "name": "Intake_Yukikaze_0"
    },
    {
      "children": [
        18
      ],
      "matrix": [
        100.0,
        0.0,
        0.0,
        0.0,
        0.0,
        -1.629206793918314e-05,
        -99.99999999999868,
        0.0,
        0.0,
        99.99999999999868,
        -1.629206793918314e-05,
        0.0,
        326.71044921875,
        123.96664428710938,
        -400.705322265625,
        1.0
      ],
      "name": "WingMain"
    },
    {
      "mesh": 7,
      "name": "WingMain_Yukikaze_0"
    }
  ],
  "samplers": [
    {
      "magFilter": 9729,
      "minFilter": 9987,
      "wrapS": 10497,
      "wrapT": 10497
    }
  ],
  "scene": 0,
  "scenes": [
    {
      "name": "Sketchfab_Scene",
      "nodes": [
        0
      ]
    }
  ],
  "textures": [
    {
      "sampler": 0,
      "source": 0
    }
  ]
}
